<mxfile host="app.diagrams.net" agent="Mozilla/5.0 (Macintosh; Intel Mac OS X 10_15_7) AppleWebKit/537.36 (KHTML, like Gecko) Chrome/131.0.0.0 Safari/537.36" version="25.0.1">
  <diagram name="Page-1" id="aFCZX8sQgbK9KD3kQH3_">
    <mxGraphModel dx="1621" dy="1521" grid="1" gridSize="10" guides="1" tooltips="1" connect="1" arrows="1" fold="1" page="0" pageScale="1" pageWidth="827" pageHeight="1169" math="0" shadow="0">
      <root>
        <mxCell id="0" />
        <mxCell id="1" parent="0" />
        <mxCell id="rTd2wPLrgLgjxWC-Via5-18" value="" style="rounded=0;whiteSpace=wrap;html=1;shadow=1;" vertex="1" parent="1">
          <mxGeometry x="-45" width="1205" height="840" as="geometry" />
        </mxCell>
        <mxCell id="OwcmuB5FL0zpqkgBIQRN-11" value="" style="rounded=0;whiteSpace=wrap;html=1;" parent="1" vertex="1">
          <mxGeometry x="190" y="60" width="870" height="700" as="geometry" />
        </mxCell>
        <mxCell id="OwcmuB5FL0zpqkgBIQRN-1" value="Drop bucket" style="whiteSpace=wrap;html=1;aspect=fixed;" parent="1" vertex="1">
          <mxGeometry x="27.5" y="150" width="80" height="80" as="geometry" />
        </mxCell>
        <mxCell id="OwcmuB5FL0zpqkgBIQRN-6" value="Airflow" style="text;html=1;align=center;verticalAlign=middle;whiteSpace=wrap;rounded=0;fontSize=18;" parent="1" vertex="1">
          <mxGeometry x="200" y="70" width="100" height="50" as="geometry" />
        </mxCell>
        <mxCell id="rTd2wPLrgLgjxWC-Via5-2" value="" style="edgeStyle=orthogonalEdgeStyle;rounded=0;orthogonalLoop=1;jettySize=auto;html=1;" edge="1" parent="1" source="OwcmuB5FL0zpqkgBIQRN-8" target="rTd2wPLrgLgjxWC-Via5-1">
          <mxGeometry relative="1" as="geometry" />
        </mxCell>
        <mxCell id="rTd2wPLrgLgjxWC-Via5-9" style="edgeStyle=orthogonalEdgeStyle;rounded=0;orthogonalLoop=1;jettySize=auto;html=1;exitX=0;exitY=0.5;exitDx=0;exitDy=0;endArrow=none;endFill=0;startArrow=classic;startFill=1;" edge="1" parent="1" source="OwcmuB5FL0zpqkgBIQRN-8" target="OwcmuB5FL0zpqkgBIQRN-1">
          <mxGeometry relative="1" as="geometry" />
        </mxCell>
        <mxCell id="rTd2wPLrgLgjxWC-Via5-31" value="Pull" style="edgeLabel;html=1;align=center;verticalAlign=middle;resizable=0;points=[];" vertex="1" connectable="0" parent="rTd2wPLrgLgjxWC-Via5-9">
          <mxGeometry x="-0.2696" relative="1" as="geometry">
            <mxPoint y="-10" as="offset" />
          </mxGeometry>
        </mxCell>
        <mxCell id="OwcmuB5FL0zpqkgBIQRN-8" value="pull new images and annotations" style="rounded=0;whiteSpace=wrap;html=1;" parent="1" vertex="1">
          <mxGeometry x="280" y="160" width="140" height="60" as="geometry" />
        </mxCell>
        <mxCell id="rTd2wPLrgLgjxWC-Via5-5" style="edgeStyle=orthogonalEdgeStyle;rounded=0;orthogonalLoop=1;jettySize=auto;html=1;exitX=1;exitY=0.5;exitDx=0;exitDy=0;entryX=0.5;entryY=0;entryDx=0;entryDy=0;dashed=1;dashPattern=8 8;" edge="1" parent="1" source="OwcmuB5FL0zpqkgBIQRN-9" target="OwcmuB5FL0zpqkgBIQRN-14">
          <mxGeometry relative="1" as="geometry">
            <Array as="points">
              <mxPoint x="840" y="190" />
              <mxPoint x="840" y="310" />
              <mxPoint x="340" y="310" />
            </Array>
          </mxGeometry>
        </mxCell>
        <mxCell id="rTd2wPLrgLgjxWC-Via5-6" value="Trigger" style="edgeLabel;html=1;align=center;verticalAlign=middle;resizable=0;points=[];" vertex="1" connectable="0" parent="rTd2wPLrgLgjxWC-Via5-5">
          <mxGeometry x="0.0235" y="1" relative="1" as="geometry">
            <mxPoint x="-7" y="-21" as="offset" />
          </mxGeometry>
        </mxCell>
        <mxCell id="rTd2wPLrgLgjxWC-Via5-21" style="edgeStyle=orthogonalEdgeStyle;rounded=0;orthogonalLoop=1;jettySize=auto;html=1;exitX=0.5;exitY=1;exitDx=0;exitDy=0;entryX=0.25;entryY=0;entryDx=0;entryDy=0;" edge="1" parent="1" source="OwcmuB5FL0zpqkgBIQRN-9" target="OwcmuB5FL0zpqkgBIQRN-19">
          <mxGeometry relative="1" as="geometry">
            <Array as="points">
              <mxPoint x="760" y="280" />
              <mxPoint x="45" y="280" />
            </Array>
          </mxGeometry>
        </mxCell>
        <mxCell id="rTd2wPLrgLgjxWC-Via5-27" value="Store" style="edgeLabel;html=1;align=center;verticalAlign=middle;resizable=0;points=[];" vertex="1" connectable="0" parent="rTd2wPLrgLgjxWC-Via5-21">
          <mxGeometry x="-0.0111" y="3" relative="1" as="geometry">
            <mxPoint x="62" y="-13" as="offset" />
          </mxGeometry>
        </mxCell>
        <mxCell id="OwcmuB5FL0zpqkgBIQRN-9" value="store processed files" style="rounded=0;whiteSpace=wrap;html=1;" parent="1" vertex="1">
          <mxGeometry x="700" y="160" width="120" height="60" as="geometry" />
        </mxCell>
        <mxCell id="OwcmuB5FL0zpqkgBIQRN-18" value="" style="edgeStyle=orthogonalEdgeStyle;rounded=0;orthogonalLoop=1;jettySize=auto;html=1;" parent="1" source="OwcmuB5FL0zpqkgBIQRN-14" target="OwcmuB5FL0zpqkgBIQRN-17" edge="1">
          <mxGeometry relative="1" as="geometry" />
        </mxCell>
        <mxCell id="rTd2wPLrgLgjxWC-Via5-22" style="edgeStyle=orthogonalEdgeStyle;rounded=0;orthogonalLoop=1;jettySize=auto;html=1;exitX=0;exitY=0.75;exitDx=0;exitDy=0;entryX=0.5;entryY=0;entryDx=0;entryDy=0;endArrow=none;endFill=0;startArrow=classic;startFill=1;" edge="1" parent="1" source="OwcmuB5FL0zpqkgBIQRN-14" target="OwcmuB5FL0zpqkgBIQRN-19">
          <mxGeometry relative="1" as="geometry" />
        </mxCell>
        <mxCell id="rTd2wPLrgLgjxWC-Via5-23" value="Pull" style="edgeLabel;html=1;align=center;verticalAlign=middle;resizable=0;points=[];" vertex="1" connectable="0" parent="rTd2wPLrgLgjxWC-Via5-22">
          <mxGeometry x="-0.0236" relative="1" as="geometry">
            <mxPoint x="25" y="-15" as="offset" />
          </mxGeometry>
        </mxCell>
        <mxCell id="OwcmuB5FL0zpqkgBIQRN-14" value="Pull new data" style="rounded=0;whiteSpace=wrap;html=1;" parent="1" vertex="1">
          <mxGeometry x="280" y="350" width="120" height="60" as="geometry" />
        </mxCell>
        <mxCell id="OwcmuB5FL0zpqkgBIQRN-22" value="" style="edgeStyle=orthogonalEdgeStyle;rounded=0;orthogonalLoop=1;jettySize=auto;html=1;" parent="1" source="OwcmuB5FL0zpqkgBIQRN-17" target="OwcmuB5FL0zpqkgBIQRN-21" edge="1">
          <mxGeometry relative="1" as="geometry" />
        </mxCell>
        <mxCell id="OwcmuB5FL0zpqkgBIQRN-17" value="train" style="rounded=0;whiteSpace=wrap;html=1;" parent="1" vertex="1">
          <mxGeometry x="480" y="350" width="120" height="60" as="geometry" />
        </mxCell>
        <mxCell id="OwcmuB5FL0zpqkgBIQRN-19" value="Processed data bucket" style="whiteSpace=wrap;html=1;" parent="1" vertex="1">
          <mxGeometry x="22.5" y="500" width="90" height="90" as="geometry" />
        </mxCell>
        <mxCell id="rTd2wPLrgLgjxWC-Via5-8" value="Trigger" style="edgeStyle=orthogonalEdgeStyle;rounded=0;orthogonalLoop=1;jettySize=auto;html=1;exitX=1;exitY=0.5;exitDx=0;exitDy=0;entryX=0.5;entryY=0;entryDx=0;entryDy=0;dashed=1;dashPattern=8 8;" edge="1" parent="1" source="OwcmuB5FL0zpqkgBIQRN-21" target="rTd2wPLrgLgjxWC-Via5-7">
          <mxGeometry y="-10" relative="1" as="geometry">
            <Array as="points">
              <mxPoint x="820" y="380" />
              <mxPoint x="820" y="500" />
              <mxPoint x="340" y="500" />
            </Array>
            <mxPoint as="offset" />
          </mxGeometry>
        </mxCell>
        <mxCell id="rTd2wPLrgLgjxWC-Via5-24" style="edgeStyle=orthogonalEdgeStyle;rounded=0;orthogonalLoop=1;jettySize=auto;html=1;exitX=0.5;exitY=1;exitDx=0;exitDy=0;entryX=0.75;entryY=0;entryDx=0;entryDy=0;" edge="1" parent="1" source="OwcmuB5FL0zpqkgBIQRN-21" target="OwcmuB5FL0zpqkgBIQRN-19">
          <mxGeometry relative="1" as="geometry" />
        </mxCell>
        <mxCell id="rTd2wPLrgLgjxWC-Via5-25" value="Store" style="edgeLabel;html=1;align=center;verticalAlign=middle;resizable=0;points=[];" vertex="1" connectable="0" parent="rTd2wPLrgLgjxWC-Via5-24">
          <mxGeometry x="0.0595" y="-3" relative="1" as="geometry">
            <mxPoint x="47" y="-12" as="offset" />
          </mxGeometry>
        </mxCell>
        <mxCell id="OwcmuB5FL0zpqkgBIQRN-21" value="store weights" style="rounded=0;whiteSpace=wrap;html=1;" parent="1" vertex="1">
          <mxGeometry x="680" y="350" width="120" height="60" as="geometry" />
        </mxCell>
        <mxCell id="rTd2wPLrgLgjxWC-Via5-4" value="" style="edgeStyle=orthogonalEdgeStyle;rounded=0;orthogonalLoop=1;jettySize=auto;html=1;" edge="1" parent="1" source="rTd2wPLrgLgjxWC-Via5-1">
          <mxGeometry relative="1" as="geometry">
            <mxPoint x="700" y="190" as="targetPoint" />
          </mxGeometry>
        </mxCell>
        <mxCell id="rTd2wPLrgLgjxWC-Via5-1" value="preprocess and&amp;nbsp;&lt;div&gt;s&lt;span style=&quot;background-color: initial;&quot;&gt;plit data&lt;/span&gt;&lt;/div&gt;" style="rounded=0;whiteSpace=wrap;html=1;" vertex="1" parent="1">
          <mxGeometry x="500" y="160" width="140" height="60" as="geometry" />
        </mxCell>
        <mxCell id="rTd2wPLrgLgjxWC-Via5-13" value="" style="edgeStyle=orthogonalEdgeStyle;rounded=0;orthogonalLoop=1;jettySize=auto;html=1;" edge="1" parent="1" source="rTd2wPLrgLgjxWC-Via5-7" target="rTd2wPLrgLgjxWC-Via5-12">
          <mxGeometry relative="1" as="geometry" />
        </mxCell>
        <mxCell id="rTd2wPLrgLgjxWC-Via5-7" value="pull weights" style="rounded=0;whiteSpace=wrap;html=1;" vertex="1" parent="1">
          <mxGeometry x="280" y="560" width="120" height="60" as="geometry" />
        </mxCell>
        <mxCell id="rTd2wPLrgLgjxWC-Via5-15" value="" style="edgeStyle=orthogonalEdgeStyle;rounded=0;orthogonalLoop=1;jettySize=auto;html=1;" edge="1" parent="1" source="rTd2wPLrgLgjxWC-Via5-12" target="rTd2wPLrgLgjxWC-Via5-14">
          <mxGeometry relative="1" as="geometry" />
        </mxCell>
        <mxCell id="rTd2wPLrgLgjxWC-Via5-12" value="build BentoML" style="rounded=0;whiteSpace=wrap;html=1;" vertex="1" parent="1">
          <mxGeometry x="480" y="560" width="120" height="60" as="geometry" />
        </mxCell>
        <mxCell id="rTd2wPLrgLgjxWC-Via5-17" value="" style="edgeStyle=orthogonalEdgeStyle;rounded=0;orthogonalLoop=1;jettySize=auto;html=1;" edge="1" parent="1" source="rTd2wPLrgLgjxWC-Via5-14" target="rTd2wPLrgLgjxWC-Via5-16">
          <mxGeometry relative="1" as="geometry" />
        </mxCell>
        <mxCell id="rTd2wPLrgLgjxWC-Via5-14" value="containerize latest BentoML&amp;nbsp;" style="rounded=0;whiteSpace=wrap;html=1;" vertex="1" parent="1">
          <mxGeometry x="680" y="560" width="120" height="60" as="geometry" />
        </mxCell>
        <mxCell id="rTd2wPLrgLgjxWC-Via5-16" value="run BentoML" style="rounded=0;whiteSpace=wrap;html=1;" vertex="1" parent="1">
          <mxGeometry x="880" y="560" width="120" height="60" as="geometry" />
        </mxCell>
        <mxCell id="rTd2wPLrgLgjxWC-Via5-29" style="edgeStyle=orthogonalEdgeStyle;rounded=0;orthogonalLoop=1;jettySize=auto;html=1;exitX=1;exitY=0.5;exitDx=0;exitDy=0;entryX=0.017;entryY=0.617;entryDx=0;entryDy=0;entryPerimeter=0;" edge="1" parent="1" source="OwcmuB5FL0zpqkgBIQRN-19" target="rTd2wPLrgLgjxWC-Via5-7">
          <mxGeometry relative="1" as="geometry">
            <Array as="points">
              <mxPoint x="240" y="545" />
              <mxPoint x="240" y="597" />
            </Array>
          </mxGeometry>
        </mxCell>
        <mxCell id="rTd2wPLrgLgjxWC-Via5-30" value="Pull" style="edgeLabel;html=1;align=center;verticalAlign=middle;resizable=0;points=[];" vertex="1" connectable="0" parent="rTd2wPLrgLgjxWC-Via5-29">
          <mxGeometry x="-0.0205" y="4" relative="1" as="geometry">
            <mxPoint x="-10" y="-11" as="offset" />
          </mxGeometry>
        </mxCell>
      </root>
    </mxGraphModel>
  </diagram>
</mxfile>
